<?xml version="1.0" encoding="iso-8859-1"?>
<!-- Generator: Adobe Illustrator 19.0.0, SVG Export Plug-In . SVG Version: 6.00 Build 0)  -->
<svg version="1.1" id="Capa_1" xmlns="http://www.w3.org/2000/svg" xmlns:xlink="http://www.w3.org/1999/xlink" x="0px" y="0px"
	 viewBox="0 0 512 512" style="enable-background:new 0 0 512 512;" xml:space="preserve">
<g>
	<g>
		<path d="M408.678,63.241C367.896,22.459,313.674,0,256,0S144.104,22.459,103.322,63.241
			c-40.782,40.782-63.241,95.004-63.241,152.678c0,69.962,34.138,135.891,91.319,176.361c3.38,2.392,8.061,1.591,10.455-1.79
			c2.393-3.381,1.592-8.062-1.789-10.455c-53.214-37.662-84.984-99.014-84.984-164.117C55.081,105.132,145.212,15,256,15
			s200.919,90.132,200.919,200.919c0,65.115-31.78,126.475-85.011,164.136c-3.381,2.393-4.183,7.073-1.791,10.455
			c1.462,2.065,3.777,3.168,6.129,3.168c1.498,0,3.01-0.447,4.325-1.378c57.199-40.469,91.348-106.406,91.348-176.381
			C471.919,158.245,449.46,104.023,408.678,63.241z"/>
	</g>
</g>
<g>
	<g>
		<path d="M256.001,72.145c-79.277,0-143.774,64.497-143.774,143.774c0,30.628,9.501,59.865,27.477,84.549
			c2.438,3.347,7.128,4.087,10.478,1.648c3.348-2.438,4.086-7.129,1.648-10.478c-16.095-22.103-24.603-48.286-24.603-75.719
			c0-71.006,57.768-128.774,128.774-128.774s128.774,57.768,128.774,128.774c0,27.445-8.514,53.638-24.622,75.747
			c-2.439,3.348-1.702,8.039,1.646,10.479c1.333,0.971,2.878,1.438,4.41,1.438c2.315,0,4.599-1.069,6.067-3.084
			c17.99-24.691,27.499-53.939,27.499-84.58C399.775,136.642,335.278,72.145,256.001,72.145z"/>
	</g>
</g>
<g>
	<g>
		<path d="M327.698,304.907l-26.703-11.444c-8.896-3.813-19.066-1.854-25.91,4.99l-13.053,13.053
			c-1.611,1.612-3.754,2.499-6.033,2.499c-2.279,0-4.421-0.887-6.033-2.499l-13.053-13.053c-6.844-6.844-17.014-8.802-25.91-4.99
			L184.3,304.907c-14.566,6.243-23.979,20.518-23.979,36.366v115.131c0,4.142,3.358,7.5,7.5,7.5c4.142,0,7.5-3.358,7.5-7.5V341.272
			c0-9.84,5.844-18.703,14.888-22.579l26.703-11.444c3.224-1.382,6.912-0.672,9.394,1.809l13.052,13.053
			c4.445,4.445,10.354,6.893,16.64,6.893s12.195-2.448,16.64-6.893l13.053-13.053c2.482-2.481,6.169-3.191,9.394-1.809
			l26.703,11.444c9.044,3.876,14.888,12.739,14.888,22.579v115.131c0,4.142,3.358,7.5,7.5,7.5c4.142,0,7.5-3.358,7.5-7.5V341.272
			C351.677,325.424,342.265,311.15,327.698,304.907z"/>
	</g>
</g>
<g>
	<g>
		<path d="M256,152.306c-30.657,0-55.597,24.94-55.597,55.597v16.032c0,30.657,24.941,55.597,55.597,55.597
			s55.597-24.94,55.597-55.597v-16.032C311.597,177.247,286.657,152.306,256,152.306z M296.597,223.935
			c0,22.385-18.211,40.597-40.597,40.597s-40.597-18.211-40.597-40.597v-16.032c0-22.385,18.211-40.597,40.597-40.597
			s40.597,18.211,40.597,40.597V223.935z"/>
	</g>
</g>
<g>
	<g>
		<path d="M199.887,352.709c-4.142,0-7.5,3.358-7.5,7.5V504.5c0,4.142,3.358,7.5,7.5,7.5c4.142,0,7.5-3.358,7.5-7.5V360.209
			C207.387,356.067,204.029,352.709,199.887,352.709z"/>
	</g>
</g>
<g>
	<g>
		<path d="M312.113,352.709c-4.142,0-7.5,3.358-7.5,7.5V504.5c0,4.142,3.358,7.5,7.5,7.5c4.142,0,7.5-3.358,7.5-7.5V360.209
			C319.613,356.067,316.255,352.709,312.113,352.709z"/>
	</g>
</g>
<g>
</g>
<g>
</g>
<g>
</g>
<g>
</g>
<g>
</g>
<g>
</g>
<g>
</g>
<g>
</g>
<g>
</g>
<g>
</g>
<g>
</g>
<g>
</g>
<g>
</g>
<g>
</g>
<g>
</g>
</svg>
